<?xml version="1.0" encoding="UTF-8"?>
<svg id="Layer_1" data-name="Layer 1" xmlns="http://www.w3.org/2000/svg" viewBox="0 0 512 512">
  <path d="M304.67,410.91c4.78,23.18,4.55,59.75-11.74,78.52-10.31,11.23-24.8,9.19-35.94.56-31.81-24.84-53.51-90.78-38.27-129.19,9.56-24.38,34.31-30.83,54.4-13.89,18.73,16.32,26.52,40.89,31.54,64h0ZM287.26,415.28c-5.03-16.11-12.81-30.74-23.99-42.47-3.97-3.96-8.65-8.23-13.79-9.06-7.44-.41-11.57,17.33-12.42,24.09-3.27,26.37,1.42,54.92,14.36,78.27,5.76,10,18.66,26.64,31.32,19.54,6.46-4.32,9.08-12.56,10.36-20.06,2.45-16.86-1.03-34.11-5.84-50.3h0Z"/>
  <path d="M46.77,293.45c10.36,29.38,31.3,64.06,62.8,72.14,14.29,3.36,26.74-2.09,34.3-14.63,8.1-13.19,10.45-30.86,10.69-46.5,1.15-57.06-12.48-127.2-55.21-167.67-13.06-11.88-31.39-20.82-47.91-11.59-21.29,11.76-22.49,53.84-21.63,76.06,2.77,57.63,22.18,129.32,54.31,177.51,23.13,33.68,51.51,49.48,81.61,12.6,0,0,3.23,2.36,3.23,2.36-2.54,3.94-5.37,7.74-8.6,11.27-25.13,27.78-54.95,16.93-77.87-7.12-39.19-42.03-63.29-110.85-72.76-166.91C3.92,193.65-.3,135.5,31.27,107.94c9.22-7.71,21.1-12.08,33.14-12.61,30.66-.94,56.15,21.12,72.9,44.26,33.99,47.99,45.05,108,43.17,165.63-.84,25.87-6.4,53.93-26.91,72.14-13.39,11.95-32.65,15.7-49.65,10.84-20.91-5.82-36.89-19.86-49.38-36.64-11.69-15.88-19.72-33.97-24.95-52.75,0,0,17.19-5.37,17.19-5.37h0Z"/>
  <path d="M346.8,349.17c15.2,32.9,61.05,85.44,97.08,49.48,7.48-7.56,12.79-16.41,16.67-26.43,28.28-75.61,18.74-227.86-22.17-297.81-7.89-12.97-16.85-24.33-30.01-30.36-11.12-4.89-24.57-4.36-34.4,3.16-34.37,27.95-34.82,109.98-29.34,151.35,2.98,22.02,8.85,43.93,16.53,64.62,9.87,26.21,34.01,73,67.67,56.86,13.04-6.78,21.94-19.1,28.72-32.74,14.26-29.86,17.12-64.47,14.18-97.3,0,0-.83-9.38-.83-9.38l17.89-2.37s1.59,9.28,1.59,9.28c7.94,48.38,3.24,105.76-31.85,143.44-15.81,16.52-39.49,25.12-61.98,17.49-51.41-17.01-75.66-97.28-83.05-145.62-8.24-57.2-5.31-171.94,62.77-191.18,30.65-7.97,59.21,6.9,77.42,31.08,56.35,73.51,61.76,253.96,24.7,337.18-8.13,17.76-21.24,34.61-39.87,42.35-32.85,13.44-64.35-12.32-81.55-38.2-7.43-11-13.31-22.96-17.71-35.44,0,0,6.03-2.55,6.03-2.55,0,0,1.51,3.1,1.51,3.1h0Z"/>
  <path d="M30.13,216.51c6.04,46.8,24.95,124.75,80.88,153.58,29.63,15.28-40.3-16.59-40.3-16.59l-53.59-114.19,13.01-22.79Z"/>
</svg>