<?xml version="1.0" encoding="UTF-8"?>
<svg id="Layer_1" data-name="Layer 1" xmlns="http://www.w3.org/2000/svg" viewBox="0 0 512 512">
  <defs>
    <style>
      .cls-1 {
        fill: #ff9c59;
      }

      .cls-2 {
        fill: #5d21ff;
      }
    </style>
  </defs>
  <g>
    <path class="cls-2" d="M439.12,343.81c20.58-86.13-29.15-128.86-53.43-156.19-42.19-47.5-335.83,60.38-335.83,60.38,12.66,38.64,58.76,142.91,6.45,185.58,18.3,50.85,331.9,123.32,382.82-89.76Z"/>
    <path d="M437.85,343.51c14.55-60.46-3.35-103.85-45.53-147.33-1.94-2.1-6.37-7.02-8.24-9.01-4.82-4.66-11.29-7-17.78-8.52-21.3-4.42-43.36-1.94-64.75.78-64.63,9.54-127.54,28.29-189.61,48.27-20.69,6.76-41.3,13.82-61.72,21.33,0,0,.66-1.37.66-1.37,19.39,52.66,60.39,145.13,8.82,190.11,0,0,1.67-6.02,1.67-6.02,1.27,3.47,4.08,6.8,6.99,9.43,10.3,9.21,23.17,15.28,36.04,20.6,69.1,26.51,154.72,32.18,224.71,6.02,56.29-21.09,95.06-65.8,108.72-124.28h0ZM440.39,344.11c-18.95,83.77-83.67,130.65-166.02,143.01-57.92,8.48-118.01,2.78-173.24-16.84-13.93-5.34-27.95-11.57-39.63-21.38-4.25-3.76-8.1-7.86-10.28-13.49-.86-2.21-.11-4.64,1.67-6.02,43.11-34.16,17.85-113.42,3.59-157.61-2.56-7.79-5.24-15.55-7.66-23.44-.19-.56.1-1.18.66-1.37,73.13-25.33,246.15-83.86,317.18-69.86,6.66,1.51,13.54,3.98,18.61,8.85,2.01,2.07,6.31,6.9,8.34,9.03,42.9,43.75,61.19,87.86,46.78,149.13h0Z"/>
  </g>
  <g>
    <path class="cls-1" d="M355.78,395.05c-10.13,14.34-60.25,48.18-133.05,49.68-161.4,3.32-127.31-86.63-102.18-78.42-15-27.6-26.25-78.53-25.98-105.39.3-29.53,12.48-54.93,12.48-54.93l234.58-48.1,44.72,142.6-30.56,94.56Z"/>
    <path d="M361.17,397.75c-4.57,6.72-10.9,11.22-17.26,15.84-29.35,19.81-64.15,30.43-99.12,33.98-40.14,3.31-112.09,1.32-139.01-32.55-9.16-11.23-11.73-28.25-3.72-40.83,2.91-4.62,7.48-8.85,13.13-9.71,1.92-.29,3.93-.12,5.77.51,0,0-1.66,1.99-1.66,1.99-13.65-24.51-21.29-51.8-26.64-79.24-2.58-13.93-4.03-28.5-2.38-42.68,1.43-13.46,4.65-26.69,9.48-39.33.34-.88.66-1.68,1.1-2.69,0,0,4.79-3.74,4.79-3.74,0,0,235.24-44.83,235.24-44.83,0,0,4.04,2.38,4.04,2.38,0,0,44.72,142.6,44.72,142.6,0,0,0,2.12,0,2.12l-28.5,96.18h0ZM350.38,392.36l32.63-92.93s0,2.13,0,2.12c0,0-44.72-142.6-44.72-142.6,0,0,4.04,2.38,4.04,2.38,0,0-233.9,51.36-233.91,51.36,0,0,4.79-3.74,4.79-3.74-.3.56-.68,1.36-1.01,2.07-5.19,11.28-8.95,23.29-11.08,35.52-2.43,13.28-1.9,26.6-.33,40.01,2.43,20.31,6.71,40.65,13.23,60.11,2.2,6.49,4.72,12.88,7.75,19l-1.66,1.99c-6.22-1.91-12.17,3.11-15.16,8.31-3.29,5.58-4.46,12.34-3.58,18.74,1.77,13.26,11.9,23.57,23.2,29.97,28.96,15.95,66.6,16.95,99.06,16.04,33.6-1.34,67.25-9.75,96.79-25.84,10.97-6.11,21.75-13.02,29.96-22.5h0Z"/>
  </g>
  <ellipse class="cls-2" cx="209.3" cy="400.47" rx="9.8" ry="14.62" transform="translate(-91.08 62.89) rotate(-14.07)"/>
  <path d="M219.86,397.83c.94,4.99.52,10.46-2.37,14.79-3.7,5.41-10.1,3.71-13.81-.7-5.54-6.43-8.46-16.67-4.02-24.56,1.55-2.74,5.48-5.01,8.9-4.2,6.82,1.37,10.06,8.71,11.3,14.66h0ZM215.88,398.82c-1.28-4.02-4.92-10.01-9.43-9.73-4.26,1.56-4.37,9-3.73,13.02.51,2.82,1.49,5.66,3.19,7.97,2.3,3.42,7.09,5.55,9.69,1.27,2.15-3.77,1.45-8.54.28-12.53h0Z"/>
  <g>
    <path class="cls-2" d="M36.83,270.43c22.83,6.51,176.35-6.31,293.64-56.1,11.81,24.47,37.6,185.76-27.37,264.23,264.14-55.35,243.71-452.38-46.3-454.33C93.27,23.14-15.75,140.68,36.83,270.43Z"/>
    <path d="M40.09,266.8c-.2-.43-.64-.76-1.03-.83,0,0,.92.19.92.19,11.25,1.69,22.75,1.11,34.14.74,37.38-1.8,74.61-6.91,111.42-13.75,49.06-9.35,97.69-22.15,143.9-41.22,1.28-.58,2.81,0,3.39,1.27,2.5,5.55,3.85,11.1,5.27,16.88,14.4,67.58,15.3,157.19-15.33,220.23-5.14,10.32-11.33,20.16-18.72,29.04,0,0-1.2-1.98-1.2-1.98,43.63-9.19,85.18-29.83,116.8-61.48,116.46-116.21,75.36-332.34-89-377.8-102.08-28.11-239.16,1.33-288.45,103.49-17.1,36-17.95,78.01-5.13,115.47,0,0,1.36,3.87,1.36,3.87.66,1.94,1.45,3.79,1.65,5.87h0ZM33.57,274.07c-3.07-5.51-5.1-12.05-7-18.07-1.7-5.39-3.13-11.21-4.28-16.74-12.51-58.77,8.55-116.62,52.76-156.52C142.59,22.01,246.9,7.25,332.63,31.35c141.71,40.09,197.15,207.49,130.01,332.86-31.64,60.67-92.61,102.69-159.29,115.56-.66.14-1.31-.29-1.45-.95-.08-.38.03-.75.26-1.03,7.17-8.78,13.14-18.51,18.09-28.71,29.61-62.58,27.8-151.15,12.92-217.81-1.33-5.3-2.82-10.92-5.06-15.79,0,0,3.39,1.27,3.39,1.27-23.16,10.02-47,18.36-71.16,25.54-48.37,14.27-97.92,24.26-147.99,30.34-18.85,2.19-37.78,3.97-56.83,4.11-4.86,0-9.77-.08-14.67-.64-2.44-.3-5.2-.61-7.29-2.03h0Z"/>
  </g>
  <ellipse class="cls-2" cx="150.4" cy="317.74" rx="17.94" ry="40.72" transform="translate(-72.73 46.09) rotate(-14.07)"/>
  <ellipse class="cls-2" cx="279.84" cy="298.13" rx="22.93" ry="47.17" transform="translate(-42.02 45.94) rotate(-8.73)"/>
  <path d="M138.06,332.35c2.53,7.16,6.57,13.82,12.6,18.32,8.17,6.09,17.12,4.74,18.87-6.3,1.16-7.48-.12-15.42-1.34-22.86-1.85-10.09-5.16-20.25-10.74-28.8-3.88-5.64-8.92-11.38-15.76-10.77-22.81,2.66,2.53,97.24,25.72,84.45,2.24-1.15,4.19-3,5.88-5.05,0,0,.96.7.96.7-2.26,3.48-5.56,6.98-9.92,7.84-16.71,2.63-29.14-27.06-33.24-39.85-3.33-10.73-5.67-21.73-5.31-33.12.23-9.48,3.62-21.13,14.81-22.57,10.13-1.41,18.3,6.33,23.43,13.97,6.39,9.62,9.85,20.61,11.92,31.79,1.53,10.97,3.99,24.85-2.69,34.59-6.57,9.38-18.75,7.76-26.61,1.19-6.91-5.51-11.37-13.67-13.68-21.96,0,0,5.09-1.59,5.09-1.59h0Z"/>
  <path d="M260.18,348.23c5.39,12.42,20.88,28.17,31.51,11.57,10.38-18.31,8.76-54.65,3.75-74.73-2.46-9.26-5.61-18.95-12.87-25.02-2.18-1.72-4.58-2.66-7.11-2.79-9.24-.56-12.35,10.3-13.97,17.83-3.1,16.38-1.4,33.66,4.11,49.36,2.85,7.45,7.63,18.53,16.21,19.74,5.45.52,10.02-4.46,12.61-9.19,5.18-9.54,5.81-20.92,5.04-31.6,0,0,5.31-.56,5.31-.56,1.2,8.16,1.62,16.48-.18,24.78-2.42,12.89-12.38,28.51-27.61,23.94-12.28-4.55-17.74-17.82-21.58-29.23-4.96-15.78-6.25-32.8-3.15-49.08,1.7-7.82,4.17-15.66,10.8-21.25,7.09-6.06,18.47-4.9,25.2.91,21.36,18.08,21.51,69.46,14.65,94.62-1.5,5.32-3.41,10.73-6.68,15.36-6.64,9.36-16.98,11.6-25.97,4.13-6.11-5.06-9.88-11.86-12.3-19,0,0,1.82-.71,1.82-.71,0,0,.42.93.42.93h0Z"/>
  <ellipse class="cls-1" cx="141.98" cy="303.66" rx="7.81" ry="15"/>
  <ellipse class="cls-1" cx="270.54" cy="290.18" rx="15" ry="7.81" transform="translate(-43.55 532.55) rotate(-84.66)"/>
  <ellipse class="cls-1" cx="76.4" cy="175.53" rx="51.02" ry="26.55" transform="translate(-110.93 214.98) rotate(-78.37)"/>
  <ellipse class="cls-1" cx="136.57" cy="175.53" rx="17.52" ry="33.66" transform="translate(-31.69 30.09) rotate(-11.28)"/>
</svg>